<svg id="Livello_1" data-name="Livello 1" xmlns="http://www.w3.org/2000/svg" viewBox="0 0 29.38 25.59"><defs><style>.cls-1{fill:#fff;}</style></defs><title>Tavola disegno 2 copia 2</title><path class="cls-1" d="M3.71,2.2a.69.69,0,0,1,0-1h0a.67.67,0,0,1,1,0h0l11,11a.67.67,0,0,1,0,1h0a.68.68,0,0,1-.95,0h0l-11-11Z"/><path class="cls-1" d="M4.67,24.2a.69.69,0,0,1-1,0h0a.69.69,0,0,1,0-1h0l11-11a.68.68,0,0,1,.95,0h0a.67.67,0,0,1,0,1h0l-11,11Z"/><path class="cls-1" d="M26.67,23.24a.67.67,0,0,1,0,1h0a.68.68,0,0,1-1,0h0l-11-11a.67.67,0,0,1,0-1h0a.68.68,0,0,1,.95,0h0l11,11Z"/><path class="cls-1" d="M25.72,1.24a.67.67,0,0,1,1,0h0a.67.67,0,0,1,0,1h0l-11,11a.68.68,0,0,1-.95,0h0a.68.68,0,0,1,0-1h0l11-11Z"/></svg>